<?xml version="1.0" standalone="no"?>
<!DOCTYPE svg PUBLIC "-//W3C//DTD SVG 20010904//EN"
 "http://www.w3.org/TR/2001/REC-SVG-20010904/DTD/svg10.dtd">
<svg version="1.0" xmlns="http://www.w3.org/2000/svg"
 width="389.000000pt" height="389.000000pt" viewBox="0 0 389.000000 389.000000"
 preserveAspectRatio="xMidYMid meet">
<metadata>
Created by potrace 1.11, written by Peter Selinger 2001-2013
</metadata>
<g transform="translate(0.000000,389.000000) scale(0.100000,-0.100000)"
fill="#000000" stroke="none">
<path d="M1775 3879 c-132 -14 -175 -21 -290 -50 -154 -38 -263 -78 -399 -145
-101 -50 -272 -156 -323 -200 -12 -10 -37 -30 -55 -44 -42 -32 -191 -180 -247
-245 -116 -135 -251 -361 -321 -539 -102 -259 -154 -604 -129 -856 20 -187 17
-169 44 -290 181 -800 869 -1412 1685 -1496 88 -10 314 -10 416 -1 40 4 126
18 193 32 644 136 1175 590 1415 1210 31 82 78 245 91 320 2 17 7 39 9 50 20
102 29 444 13 550 -20 133 -23 150 -41 225 -96 405 -338 788 -666 1053 -267
215 -626 374 -935 411 -22 3 -58 8 -80 12 -55 9 -307 11 -380 3z"/>
</g>
</svg>
